# xmcd
#
# Track frame offsets:
#  150
#  15280
#  31301
#  50972
#  70365
#  88420
#  109373
#  129601
#  151966
#  169325
#  188773
#  203931
#  219897
#
# Disc length: 3172 seconds
#
# Revision: 0
# Processed by: cddbd v1.4PL0 Copyright (c) Steve Scherf et al.
# Submitted via: AltoMP3_Maker 3.0
#
DISCID=bc0c620d
DTITLE=谢雨欣 - 谢雨欣的欣喜专辑
DYEAR=1900
DGENRE=
TTITLE0=新年快乐
TTITLE1=将爱情进行到底
TTITLE2=谁
TTITLE3=遥望
TTITLE4=木偶
TTITLE5=步步高
TTITLE6=穿裙子的季节
TTITLE7=花街
TTITLE8=阳光的祝福
TTITLE9=谁
TTITLE10=新年快乐
TTITLE11=将爱情进行到底
TTITLE12=木偶
EXTD=
EXTT0=
EXTT1=
EXTT2=
EXTT3=
EXTT4=
EXTT5=
EXTT6=
EXTT7=
EXTT8=
EXTT9=
EXTT10=
EXTT11=
EXTT12=
PLAYORDER=
